<?xml version="1.0" standalone="no"?>
<!DOCTYPE svg PUBLIC "-//W3C//DTD SVG 20010904//EN"
 "http://www.w3.org/TR/2001/REC-SVG-20010904/DTD/svg10.dtd">
<svg version="1.0" xmlns="http://www.w3.org/2000/svg"
 width="700.000000pt" height="700.000000pt" viewBox="0 0 700.000000 700.000000"
 preserveAspectRatio="xMidYMid meet">
<metadata>
Created by potrace 1.14, written by Peter Selinger 2001-2017
</metadata>
<g transform="translate(0.000000,700.000000) scale(0.100000,-0.100000)"
fill="#000000" stroke="none">
<path d="M1139 6499 c-187 -27 -322 -212 -320 -437 0 -31 5 -72 10 -90 5 -18
10 -36 10 -40 3 -32 91 -223 111 -242 3 -3 19 -27 35 -55 29 -51 102 -161 120
-181 6 -6 21 -26 35 -45 110 -147 290 -335 464 -483 27 -22 54 -46 60 -52 29
-27 216 -164 224 -164 6 0 12 -4 14 -9 2 -5 63 -46 137 -91 74 -45 141 -89
149 -96 7 -8 22 -19 33 -24 10 -6 19 -15 19 -20 0 -5 -33 -34 -72 -64 -40 -30
-89 -70 -110 -88 -20 -19 -53 -50 -75 -69 -36 -34 -99 -101 -170 -182 -18 -20
-61 -76 -95 -124 -34 -48 -65 -90 -68 -93 -19 -18 -170 -316 -170 -336 0 -7
-4 -14 -8 -16 -15 -6 -101 -281 -121 -388 -38 -198 -45 -265 -45 -440 0 -168
9 -273 34 -405 12 -60 23 -118 24 -127 1 -10 5 -21 9 -24 4 -4 7 -15 7 -23 0
-29 82 -268 109 -318 5 -10 27 -54 49 -98 63 -130 198 -343 224 -353 4 -2 8
-8 8 -14 0 -5 6 -15 13 -22 6 -7 37 -42 67 -76 85 -98 207 -213 288 -272 23
-17 42 -35 42 -40 0 -4 5 -8 11 -8 6 0 28 -13 48 -29 122 -96 451 -259 598
-297 81 -20 150 -41 161 -47 6 -5 12 -6 12 -4 0 3 17 1 38 -4 20 -5 60 -12 87
-15 28 -3 53 -8 56 -10 15 -9 159 -17 304 -18 160 0 257 6 350 23 113 21 204
40 235 51 14 5 52 16 85 26 119 34 315 121 445 197 38 22 207 134 224 148 6 5
23 19 37 32 14 12 48 41 75 63 84 71 196 187 264 274 19 25 38 46 42 48 5 2 8
10 8 18 0 8 3 14 8 14 9 0 92 123 92 138 0 7 4 12 8 12 5 0 19 19 32 42 30 54
111 217 110 220 -1 2 12 32 28 68 16 36 29 67 30 70 0 3 3 12 6 20 11 34 30
96 33 105 13 47 35 135 39 155 2 14 8 45 14 70 25 121 33 208 33 385 1 139 -9
310 -18 325 -2 3 -6 28 -9 55 -18 131 -71 318 -138 480 -46 110 -165 334 -188
355 -3 3 -17 23 -30 45 -27 44 -25 41 -101 135 -44 54 -99 115 -165 184 -56
58 -254 221 -314 257 -13 7 -11 12 10 29 14 11 45 33 70 47 64 38 293 186 306
198 7 5 24 19 40 30 165 119 446 384 564 532 32 39 63 77 69 85 6 7 29 38 51
68 22 30 43 60 48 65 4 6 17 26 28 45 10 19 21 37 24 40 12 11 82 135 114 203
89 185 82 366 -18 517 -59 89 -139 143 -231 158 -57 8 -1474 7 -1564 -2 -41
-4 -84 -10 -95 -13 -38 -8 -51 -11 -51 -13 0 -1 -7 -3 -15 -5 -88 -19 -155
-92 -270 -291 -47 -82 -87 -153 -89 -159 -2 -5 -7 -12 -10 -15 -4 -3 -12 -16
-19 -30 -6 -14 -20 -38 -29 -55 -10 -16 -58 -99 -107 -184 -50 -85 -92 -148
-94 -140 -3 8 -8 16 -12 19 -4 3 -13 19 -22 35 -8 17 -39 71 -68 120 -29 50
-65 113 -81 140 -15 28 -70 124 -123 214 -53 90 -96 165 -96 168 0 2 -15 24
-34 49 -56 73 -132 126 -200 140 -122 24 -201 27 -896 28 -410 1 -766 -2 -791
-5z"/>
</g>
</svg>
