<svg width="24" height="24" viewBox="0 0 24 24" fill="none" xmlns="http://www.w3.org/2000/svg">
<path d="M4 12.999L13 13C13.5046 12.9998 13.9906 13.1904 14.3605 13.5335C14.7305 13.8766 14.9572 14.3468 14.995 14.85L15 15V16.5C14.999 20 11.284 21 8.5 21C5.778 21 2.165 20.044 2.005 16.73L2 16.5V14.999C2 13.945 2.816 13.081 3.85 13.004L4 13V12.999ZM15.22 13H20C21.054 13 21.918 13.816 21.994 14.85L22 15V16C21.999 19.062 19.142 20 17 20C16.2745 20.0017 15.5529 19.8931 14.86 19.678C15.196 19.292 15.467 18.851 15.662 18.351C16.1013 18.4492 16.5499 18.4991 17 18.5L17.267 18.494C18.252 18.451 20.353 18.131 20.493 16.205L20.5 16V15C20.4998 14.883 20.4588 14.7698 20.3839 14.6799C20.309 14.5901 20.205 14.5292 20.09 14.508L20 14.5H15.949C15.8663 14.0105 15.6617 13.5496 15.354 13.16L15.22 13ZM4 14.499L3.9 14.509C3.80402 14.529 3.71584 14.5762 3.646 14.645C3.57718 14.7144 3.52994 14.8023 3.51 14.898L3.5 14.999V16.5C3.5 17.509 3.95 18.222 4.917 18.742C5.743 19.187 6.92 19.456 8.183 19.495L8.5 19.5L8.817 19.495C10.08 19.456 11.256 19.187 12.083 18.742C12.989 18.254 13.442 17.597 13.495 16.685L13.5 16.499V15C13.4998 14.883 13.4588 14.7698 13.3839 14.6799C13.309 14.5901 13.205 14.5292 13.09 14.508L13 14.5L4 14.499ZM8.5 2C9.69347 2 10.8381 2.47411 11.682 3.31802C12.5259 4.16193 13 5.30653 13 6.5C13 7.69347 12.5259 8.83807 11.682 9.68198C10.8381 10.5259 9.69347 11 8.5 11C7.30653 11 6.16193 10.5259 5.31802 9.68198C4.47411 8.83807 4 7.69347 4 6.5C4 5.30653 4.47411 4.16193 5.31802 3.31802C6.16193 2.47411 7.30653 2 8.5 2ZM17.5 4C18.4283 4 19.3185 4.36875 19.9749 5.02513C20.6313 5.6815 21 6.57174 21 7.5C21 8.42826 20.6313 9.3185 19.9749 9.97487C19.3185 10.6313 18.4283 11 17.5 11C16.5717 11 15.6815 10.6313 15.0251 9.97487C14.3687 9.3185 14 8.42826 14 7.5C14 6.57174 14.3687 5.6815 15.0251 5.02513C15.6815 4.36875 16.5717 4 17.5 4ZM8.5 3.5C6.846 3.5 5.5 4.846 5.5 6.5C5.5 8.154 6.846 9.5 8.5 9.5C10.154 9.5 11.5 8.154 11.5 6.5C11.5 4.846 10.154 3.5 8.5 3.5ZM17.5 5.5C16.397 5.5 15.5 6.397 15.5 7.5C15.5 8.603 16.397 9.5 17.5 9.5C18.603 9.5 19.5 8.603 19.5 7.5C19.5 6.397 18.603 5.5 17.5 5.5Z" fill="currentColor"/>
</svg>
